<?xml version="1.0" standalone="no"?>
<!DOCTYPE svg PUBLIC "-//W3C//DTD SVG 20010904//EN"
 "http://www.w3.org/TR/2001/REC-SVG-20010904/DTD/svg10.dtd">
<svg version="1.0" xmlns="http://www.w3.org/2000/svg"
 width="640.000000pt" height="640.000000pt" viewBox="0 0 640.000000 640.000000"
 preserveAspectRatio="xMidYMid meet">
<metadata>
Created by potrace 1.14, written by Peter Selinger 2001-2017
</metadata>
<g transform="translate(0.000000,640.000000) scale(0.100000,-0.100000)"
fill="#000000" stroke="none">
<path d="M1425 6129 c-155 -10 -227 -23 -350 -60 -411 -127 -707 -468 -784
-905 -27 -151 -31 -436 -31 -1974 0 -1848 2 -1887 71 -2115 125 -406 453 -696
884 -779 163 -32 395 -36 1995 -36 1848 0 1887 2 2115 71 406 125 696 453 779
884 32 163 36 395 36 1995 0 1531 -4 1792 -31 1955 -48 295 -223 577 -462 746
-195 138 -392 199 -702 219 -190 12 -3339 11 -3520 -1z m3287 -1589 c51 -14
94 -67 108 -133 10 -44 9 -77 -4 -188 -22 -170 -106 -732 -191 -1274 -36 -231
-75 -487 -86 -570 -37 -281 -64 -374 -130 -448 -71 -81 -161 -96 -290 -48 -67
25 -89 39 -652 418 -460 309 -473 320 -484 403 -10 70 32 135 160 252 211 192
752 705 815 772 63 68 78 106 50 134 -36 36 -92 2 -800 -486 -142 -97 -317
-218 -390 -268 -221 -152 -332 -198 -461 -192 -71 4 -451 98 -619 154 -161 53
-203 119 -132 204 40 47 49 52 1184 542 747 323 1709 718 1780 731 47 8 105 7
142 -3z"/>
</g>
</svg>
